<svg width="30" height="30" viewBox="0 0 30 30" fill="none" xmlns="http://www.w3.org/2000/svg">
<g id="emojione:flag-for-malaysia" clip-path="url(#clip0_362_1684)">
<path id="Vector" d="M26.25 6.5625H15V9.375H27.8906C27.4688 8.39062 26.9062 7.40625 26.25 6.5625Z" fill="#ED4C5C"/>
<path id="Vector_2" d="M28.7812 17.8125C28.9688 16.9219 29.0625 15.9844 29.0625 15H0.9375C0.9375 15.9844 1.03125 16.9219 1.21875 17.8125H28.7812Z" fill="#F9F9F9"/>
<path id="Vector_3" d="M15 0.9375V3.75H23.4375C21.0938 1.96875 18.1875 0.9375 15 0.9375Z" fill="#ED4C5C"/>
<path id="Vector_4" d="M15 6.5625H26.25C25.4531 5.48438 24.5156 4.54688 23.4375 3.75H15V6.5625ZM27.8906 9.375H15V12.1875H28.7813C28.5938 11.2031 28.2656 10.2656 27.8906 9.375Z" fill="#F9F9F9"/>
<path id="Vector_5" d="M15 12.1875V15H29.0625C29.0625 14.0156 28.9688 13.0781 28.7813 12.1875H15ZM2.10938 20.625H27.8906C28.2656 19.7344 28.5938 18.7969 28.7813 17.8125H1.21875C1.40625 18.7969 1.73438 19.7344 2.10938 20.625Z" fill="#ED4C5C"/>
<path id="Vector_6" d="M3.75 23.4375H26.25C26.9062 22.5938 27.4688 21.6094 27.8906 20.625H2.10938C2.53125 21.6094 3.09375 22.5938 3.75 23.4375Z" fill="#F9F9F9"/>
<path id="Vector_7" d="M3.75 23.4375C4.54688 24.5156 5.48438 25.4531 6.5625 26.25H23.4375C24.5156 25.4531 25.4531 24.5156 26.25 23.4375H3.75Z" fill="#ED4C5C"/>
<path id="Vector_8" d="M6.5625 26.25C8.90625 28.0312 11.8125 29.0625 15 29.0625C18.1875 29.0625 21.0938 28.0312 23.4375 26.25H6.5625Z" fill="#F9F9F9"/>
<path id="Vector_9" d="M15 0.9375C7.21875 0.9375 0.9375 7.21875 0.9375 15H15V0.9375Z" fill="#2A5F9E"/>
<path id="Vector_10" d="M9.32812 12C7.92187 12 6.75 10.8281 6.75 9.375C6.75 7.92188 7.92187 6.75 9.32812 6.75C9.89062 6.75 10.3594 6.9375 10.7812 7.21875C10.1719 6.51562 9.32812 6.09375 8.34375 6.09375C6.5625 6.09375 5.15625 7.54688 5.15625 9.375C5.15625 11.2031 6.60937 12.6562 8.34375 12.6562C9.32812 12.6562 10.1719 12.2344 10.7812 11.5312C10.3594 11.8125 9.84375 12 9.32812 12ZM12.1875 8.8125L12.5156 7.96875L12.4219 8.85937L13.0781 8.25L12.6094 9.04687L13.4531 8.76563L12.7031 9.23438L13.5938 9.375L12.7031 9.51562L13.4531 9.98437L12.6094 9.70313L13.0781 10.5L12.4219 9.89063L12.5156 10.7812L12.1875 9.9375L11.8594 10.7812L11.9531 9.89063L11.2969 10.5L11.7656 9.70313L10.9219 9.98437L11.6719 9.51562L10.7812 9.375L11.6719 9.23438L10.9219 8.76563L11.7656 9.04687L11.2969 8.25L11.9531 8.85937L11.8594 7.96875L12.1875 8.8125Z" fill="#FFE62E"/>
</g>
<defs>
<clipPath id="clip0_362_1684">
<rect width="30" height="30" fill="white"/>
</clipPath>
</defs>
</svg>
