<svg width="30" height="30" viewBox="0 0 30 30" fill="none" xmlns="http://www.w3.org/2000/svg">
<g id="emojione:flag-for-philippines" clip-path="url(#clip0_362_1677)">
<path id="Vector" d="M15.4688 15L5.29688 25.1719C7.82812 27.5625 11.25 29.0625 15 29.0625C22.7812 29.0625 29.0625 22.7812 29.0625 15H15.4688Z" fill="#ED4C5C"/>
<path id="Vector_2" d="M29.0625 15C29.0625 7.21875 22.7812 0.9375 15 0.9375C11.25 0.9375 7.82812 2.4375 5.29688 4.82812L15.4688 15H29.0625Z" fill="#428BC1"/>
<path id="Vector_3" d="M5.29688 4.82812C2.625 7.40625 0.9375 11.0156 0.9375 15C0.9375 18.9844 2.625 22.5938 5.29688 25.1719L15.4688 15L5.29688 4.82812Z" fill="#F9F9F9"/>
<g id="Group">
<path id="Vector_4" d="M6.09375 6.375L5.71875 7.03125L6.23438 7.54688L5.53125 7.45312L5.15625 8.10937L5.0625 7.40625L4.35938 7.3125L5.01563 6.9375L4.92188 6.23438L5.4375 6.75L6.09375 6.375ZM6.1875 22.5L5.67188 23.0625L6.04688 23.6719L5.39063 23.3906L4.875 23.9531L4.96875 23.2031L4.26563 22.9219L5.01563 22.7812L5.10938 22.0312L5.48438 22.6875L6.1875 22.5ZM14.2969 15L13.5938 15.2344V15.9375L13.125 15.375L12.4219 15.5625L12.8906 15L12.4219 14.4375L13.125 14.625L13.5938 14.0625V14.7656L14.2969 15ZM11.1094 14.2969L10.8281 14.0625L7.78125 14.7187H7.82813L10.6875 13.9688L10.3125 13.7344L7.875 14.6719L9.89063 12.9844L9.84375 12.5625L7.73438 14.7187H7.6875L9.79688 12.375L9.75 12.0469L9.42188 12.0937L7.54688 14.5312V14.4844L9.28125 12L8.85938 12.0469L7.59375 14.3438L8.0625 11.7188L7.78125 11.4375L7.5 14.4844V14.5312L7.59375 11.3438L7.35938 11.1094L7.125 11.3438L7.21875 14.5312V14.4844L6.98438 11.4844L6.70313 11.7656L7.17188 14.3906L5.90625 12.0937L5.48438 12.0469L7.21875 14.5312V14.5781L5.29688 12.0469L4.96875 12L4.92188 12.3281L7.03125 14.6719H6.98438L4.875 12.5156L4.82813 12.9375L6.84375 14.625L4.40625 13.6875L4.07813 13.9219L6.9375 14.6719H6.98438L3.89063 14.0625L3.60938 14.25L3.79688 14.5312L6.89063 14.9531H6.84375L3.89063 14.6719L4.125 15L6.75 14.9531L4.3125 15.9375L4.21875 16.3594L6.89063 15.0469H6.9375L4.17187 16.5469L4.07813 16.875L4.40625 16.9688L7.07813 15.2812V15.3281L4.64062 17.0625L5.01563 17.1562L6.98438 15.4219L5.625 17.7188L5.8125 18.0938L7.03125 15.375L7.07813 15.3281L5.90625 18.2812L6.04688 18.6094L6.375 18.4688L7.35938 15.4219V15.4688L6.5625 18.375L6.9375 18.1875L7.35938 15.5625L7.78125 18.1875L8.15625 18.375L7.35938 15.4688V15.4219L8.34375 18.4688L8.67188 18.6094L8.8125 18.2812L7.64062 15.3281L7.6875 15.375L8.90625 18.0938L9.09375 17.7188L7.78125 15.4219L9.75 17.1562L10.125 17.0625L7.6875 15.3281V15.2812L10.3594 16.9688L10.6875 16.875L10.5938 16.5469L7.82813 15.0469H7.875L10.5469 16.3594L10.4063 15.9375L7.92188 15.0469L10.5469 15.0938L10.7813 14.7656L7.82813 15.0469H7.78125L10.875 14.625L11.1094 14.2969Z" fill="#FFCE31"/>
<path id="Vector_5" d="M7.35938 17.1094C8.52435 17.1094 9.46875 16.165 9.46875 15C9.46875 13.835 8.52435 12.8906 7.35938 12.8906C6.1944 12.8906 5.25 13.835 5.25 15C5.25 16.165 6.1944 17.1094 7.35938 17.1094Z" fill="#FFCE31"/>
</g>
</g>
<defs>
<clipPath id="clip0_362_1677">
<rect width="30" height="30" fill="white"/>
</clipPath>
</defs>
</svg>
