<svg width="30" height="30" viewBox="0 0 30 30" fill="none" xmlns="http://www.w3.org/2000/svg">
<g id="emojione:flag-for-singapore" clip-path="url(#clip0_362_1671)">
<path id="Vector" d="M15 29.0625C22.7812 29.0625 29.0625 22.7812 29.0625 15H0.9375C0.9375 22.7812 7.21875 29.0625 15 29.0625Z" fill="#F9F9F9"/>
<path id="Vector_2" d="M15 0.9375C7.21875 0.9375 0.9375 7.21875 0.9375 15H29.0625C29.0625 7.21875 22.7812 0.9375 15 0.9375Z" fill="#ED4C5C"/>
<g id="Group">
<path id="Vector_3" d="M9.9375 8.20312L9.375 7.73438H10.0781L10.3125 7.03125L10.5469 7.73438H11.25L10.6875 8.20312L10.875 8.90625L10.3125 8.48438L9.75 8.90625L9.9375 8.20312ZM13.6875 8.20312L13.125 7.73438H13.8281L14.0625 7.03125L14.2969 7.73438H15L14.4375 8.20312L14.625 8.90625L14.0625 8.48438L13.5 8.90625L13.6875 8.20312ZM10.4063 10.5469L9.84375 10.0781H10.5469L10.7812 9.375L11.0156 10.0781H11.7188L11.1562 10.5469L11.3438 11.25L10.7812 10.8281L10.2187 11.25L10.4063 10.5469ZM13.2188 10.5469L12.6562 10.0781H13.3594L13.5938 9.375L13.8281 10.0781H14.5312L13.9687 10.5469L14.1563 11.25L13.5938 10.8281L13.0312 11.25L13.2188 10.5469ZM11.8125 6.79688L11.25 6.32812H11.9531L12.1875 5.625L12.4219 6.32812H13.125L12.5625 6.79688L12.75 7.5L12.1875 7.07813L11.625 7.5L11.8125 6.79688Z" fill="#F9F9F9"/>
<path id="Vector_4" d="M11.4375 13.125C9.1875 13.125 7.40625 11.2031 7.40625 8.85938C7.40625 6.51562 9.23438 4.59375 11.4375 4.59375C11.625 4.59375 11.7656 4.59375 11.9062 4.64062C11.3438 4.35937 10.7344 4.21875 10.0781 4.21875C7.64062 4.21875 5.625 6.32812 5.625 8.90625C5.625 11.4844 7.64062 13.5938 10.0781 13.5938C10.8281 13.5938 11.5781 13.4062 12.1875 13.0312C11.9531 13.0781 11.7188 13.125 11.4375 13.125Z" fill="#F9F9F9"/>
</g>
</g>
<defs>
<clipPath id="clip0_362_1671">
<rect width="30" height="30" fill="white"/>
</clipPath>
</defs>
</svg>
