<svg width="27" height="30" viewBox="0 0 27 30" fill="none" xmlns="http://www.w3.org/2000/svg">
<g id="logos:tiktok-icon" clip-path="url(#clip0_362_1712)">
<path id="Vector" d="M19.6262 10.8024C21.5584 12.183 23.9255 12.9952 26.482 12.9952V8.07833C25.9981 8.07844 25.5156 8.02796 25.0422 7.92771V11.798C22.4859 11.798 20.1191 10.9859 18.1865 9.60544V19.6395C18.1865 24.6591 14.1152 28.728 9.09339 28.728C7.21963 28.728 5.47797 28.1618 4.03125 27.1907C5.68249 28.8783 7.98525 29.9251 10.5328 29.9251C15.555 29.9251 19.6264 25.8562 19.6264 20.8364V10.8024H19.6262ZM21.4024 5.84189C20.4149 4.76365 19.7665 3.3702 19.6262 1.82964V1.19727H18.2618C18.6053 3.15523 19.7768 4.82799 21.4024 5.84189ZM7.20753 23.3389C6.65583 22.616 6.3576 21.7314 6.35894 20.822C6.35894 18.5263 8.22111 16.6649 10.5186 16.6649C10.9467 16.6646 11.3723 16.7303 11.7804 16.8596V11.8328C11.3035 11.7675 10.8222 11.7397 10.3412 11.7499V15.6625C9.9329 15.5331 9.5071 15.4675 9.0788 15.4679C6.78142 15.4679 4.91935 17.3291 4.91935 19.6251C4.91935 21.2486 5.85008 22.6542 7.20753 23.3389Z" fill="#FF004F"/>
<path id="Vector_2" d="M18.1865 9.60533C20.1192 10.9857 22.4858 11.7979 25.0422 11.7979V7.92761C23.6153 7.62378 22.3521 6.87854 21.4023 5.84189C19.7766 4.82789 18.6053 3.15513 18.2618 1.19727H14.6781V20.8362C14.6699 23.1257 12.8109 24.9795 10.5184 24.9795C9.16759 24.9795 7.96739 24.336 7.20735 23.3388C5.85011 22.6542 4.91928 21.2485 4.91928 19.6252C4.91928 17.3294 6.78135 15.468 9.07873 15.468C9.5189 15.468 9.94314 15.5364 10.3411 15.6626V11.75C5.40746 11.8519 1.4397 15.881 1.4397 20.8363C1.4397 23.31 2.42773 25.5524 4.03139 27.1909C5.47811 28.1618 7.21966 28.7282 9.09352 28.7282C14.1154 28.7282 18.1866 24.659 18.1866 19.6395L18.1865 9.60533Z" fill="black"/>
<path id="Vector_3" d="M25.0422 7.92724V6.88097C23.7554 6.88292 22.4941 6.52274 21.4023 5.84162C22.3687 6.89908 23.6413 7.62831 25.0422 7.92745M18.2617 1.1969C18.229 1.00982 18.2039 0.821494 18.1864 0.632379V0H13.2381V19.6391C13.2302 21.9284 11.3712 23.7822 9.07862 23.7822C8.42868 23.7832 7.78763 23.6313 7.20724 23.3388C7.96728 24.3357 9.16748 24.9791 10.5183 24.9791C12.8107 24.9791 14.6699 23.1256 14.678 20.836V1.197L18.2617 1.1969ZM10.3413 11.7497V10.6356C9.92782 10.5791 9.51096 10.5508 9.09362 10.551C4.07121 10.551 0 14.62 0 19.6391C0 22.7859 1.60003 25.5592 4.03148 27.1904C2.42783 25.552 1.43979 23.3095 1.43979 20.8359C1.43979 15.8808 5.40745 11.8516 10.3413 11.7497Z" fill="#00F2EA"/>
</g>
<defs>
<clipPath id="clip0_362_1712">
<rect width="26.4828" height="30" fill="white"/>
</clipPath>
</defs>
</svg>
