<svg width="30" height="22" viewBox="0 0 30 22" fill="none" xmlns="http://www.w3.org/2000/svg">
<g id="logos:youtube-icon" clip-path="url(#clip0_362_1705)">
<path id="Vector" d="M29.3374 3.29004C29.1654 2.65413 28.8297 2.07439 28.3639 1.60855C27.8981 1.14271 27.3183 0.807025 26.6824 0.634922C24.3544 0 14.9848 0 14.9848 0C14.9848 0 5.61471 0.0192187 3.28666 0.654141C2.65075 0.826254 2.07101 1.16196 1.60519 1.62782C1.13937 2.09368 0.80372 2.67344 0.631663 3.30938C-0.0725165 7.44586 -0.345681 13.7489 0.650999 17.7199C0.823074 18.3558 1.15873 18.9356 1.62455 19.4014C2.09037 19.8673 2.6701 20.2029 3.306 20.375C5.63405 21.01 15.0039 21.01 15.0039 21.01C15.0039 21.01 24.3736 21.01 26.7015 20.375C27.3375 20.203 27.9172 19.8673 28.3831 19.4014C28.8489 18.9356 29.1846 18.3559 29.3567 17.7199C30.0994 13.5776 30.3283 7.2784 29.3374 3.29004Z" fill="#FF0000"/>
<path id="Vector_2" d="M12.0024 15.0071L19.7753 10.505L12.0024 6.00293V15.0071Z" fill="white"/>
</g>
<defs>
<clipPath id="clip0_362_1705">
<rect width="30" height="21.0938" fill="white"/>
</clipPath>
</defs>
</svg>
