<svg width="50" height="50" viewBox="0 0 50 50" fill="none" xmlns="http://www.w3.org/2000/svg">
<g id="teenyicons:tick-circle-solid" clip-path="url(#clip0_256_8511)">
<path id="Vector" fill-rule="evenodd" clip-rule="evenodd" d="M0 25C0 18.3696 2.63392 12.0107 7.32233 7.32233C12.0107 2.63392 18.3696 0 25 0C31.6304 0 37.9893 2.63392 42.6777 7.32233C47.3661 12.0107 50 18.3696 50 25C50 31.6304 47.3661 37.9893 42.6777 42.6777C37.9893 47.3661 31.6304 50 25 50C18.3696 50 12.0107 47.3661 7.32233 42.6777C2.63392 37.9893 0 31.6304 0 25ZM23.5733 35.7L37.9667 17.7067L35.3667 15.6267L23.0933 30.9633L14.4 23.72L12.2667 26.28L23.5733 35.7Z" fill="#55C200"/>
</g>
<defs>
<clipPath id="clip0_256_8511">
<rect width="50" height="50" fill="white"/>
</clipPath>
</defs>
</svg>
