<svg width="50" height="50" viewBox="0 0 50 50" fill="none" xmlns="http://www.w3.org/2000/svg">
<g id="ic:round-warning">
<path id="Vector" d="M9.31259 43.75H40.6876C43.8959 43.75 45.8959 40.2708 44.2918 37.5L28.6043 10.3958C27.0001 7.62498 23.0001 7.62498 21.3959 10.3958L5.70842 37.5C4.10426 40.2708 6.10426 43.75 9.31259 43.75ZM25.0001 29.1666C23.8543 29.1666 22.9168 28.2291 22.9168 27.0833V22.9166C22.9168 21.7708 23.8543 20.8333 25.0001 20.8333C26.1459 20.8333 27.0834 21.7708 27.0834 22.9166V27.0833C27.0834 28.2291 26.1459 29.1666 25.0001 29.1666ZM27.0834 37.5H22.9168V33.3333H27.0834V37.5Z" fill="#CC0000"/>
</g>
</svg>
